<svg width="130" height="23" viewBox="0 0 130 23" fill="none" xmlns="http://www.w3.org/2000/svg">
<path d="M11.8807 5.88068C11.7614 5.46591 11.5938 5.09943 11.3778 4.78125C11.1619 4.45739 10.8977 4.18466 10.5852 3.96307C10.2784 3.7358 9.92614 3.5625 9.52842 3.44318C9.13637 3.32387 8.70171 3.26421 8.22444 3.26421C7.33239 3.26421 6.5483 3.4858 5.87217 3.92898C5.20171 4.37216 4.67898 5.01705 4.30398 5.86364C3.92898 6.70455 3.74148 7.73296 3.74148 8.94887C3.74148 10.1648 3.92614 11.1989 4.29546 12.0511C4.66478 12.9034 5.18751 13.554 5.86364 14.0028C6.53978 14.446 7.33808 14.6676 8.25853 14.6676C9.09376 14.6676 9.80683 14.5199 10.3977 14.2244C10.9943 13.9233 11.4489 13.5 11.7614 12.9545C12.0796 12.4091 12.2386 11.7642 12.2386 11.0199L12.9886 11.1307H8.48864V8.35227H15.7926V10.5511C15.7926 12.0852 15.4688 13.4034 14.821 14.5057C14.1733 15.6023 13.2813 16.4489 12.1449 17.0455C11.0085 17.6364 9.70739 17.9318 8.24148 17.9318C6.60512 17.9318 5.16762 17.571 3.92898 16.8494C2.69035 16.1222 1.72444 15.0909 1.03126 13.7557C0.343757 12.4148 6.94394e-06 10.8239 6.94394e-06 8.98296C6.94394e-06 7.56818 0.204552 6.30682 0.613643 5.19886C1.02842 4.08523 1.60796 3.14205 2.35228 2.36932C3.0966 1.59659 3.96308 1.00852 4.95171 0.605115C5.94035 0.201706 7.01137 1.43051e-06 8.16478 1.43051e-06C9.15342 1.43051e-06 10.0739 0.144888 10.9261 0.434661C11.7784 0.718752 12.5341 1.12216 13.1932 1.64489C13.858 2.16761 14.4006 2.78977 14.821 3.51136C15.2415 4.22727 15.5114 5.01705 15.6307 5.88068H11.8807ZM22.2294 17.9403C21.3942 17.9403 20.6499 17.7955 19.9965 17.5057C19.343 17.2102 18.826 16.7756 18.4453 16.2017C18.0703 15.6222 17.8828 14.9006 17.8828 14.0369C17.8828 13.3097 18.0163 12.6989 18.2834 12.2045C18.5504 11.7102 18.9141 11.3125 19.3743 11.0114C19.8345 10.7102 20.3573 10.483 20.9425 10.3295C21.5334 10.1761 22.1527 10.0682 22.8004 10.0057C23.5618 9.92614 24.1754 9.85227 24.6413 9.78409C25.1073 9.71023 25.4453 9.60227 25.6555 9.46023C25.8658 9.31818 25.9709 9.10796 25.9709 8.82955V8.77841C25.9709 8.23864 25.8004 7.82102 25.4595 7.52557C25.1243 7.23012 24.647 7.08239 24.0277 7.08239C23.3743 7.08239 22.8544 7.22727 22.468 7.51705C22.0817 7.80114 21.826 8.15909 21.701 8.59091L18.343 8.31818C18.5135 7.52273 18.8487 6.83523 19.3487 6.25568C19.8487 5.67046 20.4936 5.22159 21.2834 4.90909C22.0788 4.59091 22.9993 4.43182 24.0448 4.43182C24.772 4.43182 25.468 4.51705 26.1328 4.6875C26.8033 4.85796 27.397 5.12216 27.9141 5.48011C28.4368 5.83807 28.8487 6.2983 29.1499 6.8608C29.451 7.41762 29.6016 8.08523 29.6016 8.86364V17.6932H26.1584V15.8778H26.0561C25.8459 16.2869 25.5646 16.6477 25.2124 16.9602C24.8601 17.267 24.4368 17.5085 23.9425 17.6847C23.4482 17.8551 22.8771 17.9403 22.2294 17.9403ZM23.2692 15.4347C23.8033 15.4347 24.2749 15.3295 24.684 15.1193C25.093 14.9034 25.4141 14.6136 25.647 14.25C25.88 13.8864 25.9965 13.4744 25.9965 13.0142V11.625C25.8828 11.6989 25.7266 11.767 25.5277 11.8295C25.3345 11.8864 25.1158 11.9403 24.8715 11.9915C24.6271 12.0369 24.3828 12.0795 24.1385 12.1193C23.8942 12.1534 23.6726 12.1847 23.4737 12.2131C23.0476 12.2756 22.6754 12.375 22.3573 12.5114C22.0391 12.6477 21.7919 12.8324 21.6158 13.0653C21.4396 13.2926 21.3516 13.5767 21.3516 13.9176C21.3516 14.4119 21.5305 14.7898 21.8885 15.0511C22.2521 15.3068 22.7124 15.4347 23.2692 15.4347ZM37.2422 17.9063C36.2479 17.9063 35.3473 17.6506 34.5405 17.1392C33.7394 16.6222 33.103 15.8636 32.6314 14.8636C32.1655 13.858 31.9325 12.625 31.9325 11.1648C31.9325 9.66477 32.174 8.41762 32.657 7.4233C33.1399 6.4233 33.782 5.67614 34.5831 5.18182C35.3899 4.68182 36.2734 4.43182 37.2337 4.43182C37.9666 4.43182 38.5774 4.55682 39.0661 4.80682C39.5604 5.05114 39.9581 5.35796 40.2592 5.72727C40.5661 6.09091 40.799 6.44887 40.9581 6.80114H41.0689V0.238638H44.6911V17.6932H41.1115V15.5966H40.9581C40.7876 15.9602 40.5462 16.321 40.2337 16.679C39.9269 17.0313 39.5263 17.3239 39.032 17.5568C38.5433 17.7898 37.9467 17.9063 37.2422 17.9063ZM38.3928 15.017C38.978 15.017 39.4723 14.858 39.8757 14.5398C40.2848 14.2159 40.5973 13.7642 40.8132 13.1847C41.0348 12.6051 41.1456 11.9261 41.1456 11.1477C41.1456 10.3693 41.0376 9.69318 40.8217 9.11932C40.6058 8.54546 40.2933 8.10227 39.8842 7.78977C39.4751 7.47727 38.978 7.32102 38.3928 7.32102C37.7962 7.32102 37.2933 7.48296 36.8842 7.80682C36.4751 8.13068 36.1655 8.57955 35.9553 9.15341C35.745 9.72727 35.6399 10.392 35.6399 11.1477C35.6399 11.9091 35.745 12.5824 35.9553 13.1676C36.1712 13.7472 36.4808 14.2017 36.8842 14.5313C37.2933 14.8551 37.7962 15.017 38.3928 15.017ZM53.5739 22.875C52.3977 22.875 51.3892 22.7131 50.5483 22.3892C49.7131 22.071 49.0483 21.6364 48.554 21.0852C48.0597 20.5341 47.7386 19.9148 47.5909 19.2273L50.9489 18.7756C51.0511 19.0369 51.2131 19.2813 51.4347 19.5085C51.6563 19.7358 51.9489 19.9176 52.3125 20.054C52.6818 20.196 53.1307 20.267 53.6591 20.267C54.4489 20.267 55.0994 20.0739 55.6108 19.6875C56.1278 19.3068 56.3864 18.6676 56.3864 17.7699V15.375H56.233C56.0739 15.7386 55.8352 16.0824 55.5171 16.4063C55.1989 16.7301 54.7898 16.9943 54.2898 17.1989C53.7898 17.4034 53.1932 17.5057 52.5 17.5057C51.5171 17.5057 50.6222 17.2784 49.8153 16.8239C49.0142 16.3636 48.375 15.6619 47.8977 14.7188C47.4261 13.7699 47.1903 12.571 47.1903 11.1222C47.1903 9.63921 47.4318 8.40057 47.9148 7.40625C48.3977 6.41193 49.0398 5.66762 49.8409 5.1733C50.6477 4.67898 51.5313 4.43182 52.4915 4.43182C53.2244 4.43182 53.8381 4.55682 54.3324 4.80682C54.8267 5.05114 55.2244 5.35796 55.5256 5.72727C55.8324 6.09091 56.0682 6.44887 56.233 6.80114H56.3693V4.60227H59.9744V17.821C59.9744 18.9347 59.7017 19.8665 59.1563 20.6165C58.6108 21.3665 57.8551 21.929 56.8892 22.304C55.929 22.6847 54.8239 22.875 53.5739 22.875ZM53.6506 14.7784C54.2358 14.7784 54.7301 14.6335 55.1335 14.3438C55.5426 14.0483 55.8551 13.6278 56.071 13.0824C56.2926 12.5313 56.4034 11.8722 56.4034 11.1051C56.4034 10.3381 56.2955 9.6733 56.0796 9.1108C55.8636 8.54262 55.5511 8.10227 55.1421 7.78977C54.733 7.47727 54.2358 7.32102 53.6506 7.32102C53.054 7.32102 52.5511 7.48296 52.1421 7.80682C51.733 8.125 51.4233 8.56818 51.2131 9.13637C51.0028 9.70455 50.8977 10.3608 50.8977 11.1051C50.8977 11.8608 51.0028 12.5142 51.2131 13.0653C51.429 13.6108 51.7386 14.0341 52.1421 14.3352C52.5511 14.6307 53.054 14.7784 53.6506 14.7784ZM68.8296 17.9489C67.483 17.9489 66.3239 17.6761 65.3523 17.1307C64.3864 16.5795 63.6421 15.8011 63.1193 14.7955C62.5966 13.7841 62.3352 12.5881 62.3352 11.2074C62.3352 9.8608 62.5966 8.67898 63.1193 7.66193C63.6421 6.64489 64.3778 5.85227 65.3267 5.28409C66.2813 4.71591 67.4006 4.43182 68.6847 4.43182C69.5483 4.43182 70.3523 4.57102 71.0966 4.84943C71.8466 5.12216 72.5 5.53409 73.0568 6.08523C73.6193 6.63637 74.0568 7.32955 74.3693 8.16477C74.6818 8.99432 74.8381 9.96591 74.8381 11.0795V12.0767H63.7841V9.82671H71.4205C71.4205 9.30398 71.3068 8.84091 71.0796 8.4375C70.8523 8.03409 70.5369 7.71875 70.1335 7.49148C69.7358 7.25852 69.2727 7.14205 68.7443 7.14205C68.1932 7.14205 67.7046 7.26989 67.2784 7.52557C66.858 7.77557 66.5284 8.11364 66.2898 8.53977C66.0511 8.96023 65.929 9.42898 65.9233 9.94602V12.0852C65.9233 12.733 66.0426 13.2926 66.2813 13.7642C66.5256 14.2358 66.8693 14.5994 67.3125 14.8551C67.7557 15.1108 68.2813 15.2386 68.8892 15.2386C69.2926 15.2386 69.6619 15.1818 69.9972 15.0682C70.3324 14.9545 70.6193 14.7841 70.858 14.5568C71.0966 14.3295 71.2784 14.0511 71.4034 13.7216L74.7614 13.9432C74.5909 14.75 74.2415 15.4545 73.7131 16.0568C73.1903 16.6534 72.5142 17.1193 71.6847 17.4545C70.8608 17.7841 69.9091 17.9489 68.8296 17.9489ZM84.1705 4.60227V7.32955H76.2869V4.60227H84.1705ZM78.0767 1.46591H81.7074V13.6705C81.7074 14.0057 81.7585 14.267 81.8608 14.4545C81.9631 14.6364 82.1051 14.7642 82.2869 14.8381C82.4744 14.9119 82.6903 14.9489 82.9347 14.9489C83.1051 14.9489 83.2756 14.9347 83.446 14.9063C83.6165 14.8722 83.7472 14.8466 83.8381 14.8295L84.4091 17.5313C84.2273 17.5881 83.9716 17.6534 83.6421 17.7273C83.3125 17.8068 82.9119 17.8551 82.4403 17.8722C81.5653 17.9063 80.7983 17.7898 80.1392 17.5227C79.4858 17.2557 78.9773 16.8409 78.6136 16.2784C78.25 15.7159 78.071 15.0057 78.0767 14.1477V1.46591Z" fill="#222222"/>
<path d="M92.1584 17.6932V0.238638H99.0448C100.369 0.238638 101.496 0.491479 102.428 0.997161C103.36 1.49716 104.07 2.19318 104.559 3.08523C105.053 3.97159 105.3 4.99432 105.3 6.15341C105.3 7.3125 105.05 8.33523 104.55 9.22159C104.05 10.108 103.326 10.7983 102.377 11.2926C101.434 11.7869 100.292 12.0341 98.951 12.0341H94.5618V9.07671H98.3544C99.0646 9.07671 99.6499 8.95455 100.11 8.71023C100.576 8.46023 100.923 8.11648 101.15 7.67898C101.383 7.2358 101.499 6.72727 101.499 6.15341C101.499 5.57386 101.383 5.06818 101.15 4.63636C100.923 4.19886 100.576 3.8608 100.11 3.62216C99.6442 3.37784 99.0533 3.25568 98.3374 3.25568H95.8487V17.6932H92.1584ZM107.629 17.6932V4.60227H111.149V6.88637H111.286C111.524 6.07387 111.925 5.46023 112.487 5.04546C113.05 4.625 113.697 4.41477 114.43 4.41477C114.612 4.41477 114.808 4.42614 115.018 4.44886C115.229 4.47159 115.413 4.50284 115.572 4.54261V7.76421C115.402 7.71307 115.166 7.66762 114.865 7.62784C114.564 7.58807 114.288 7.56818 114.038 7.56818C113.504 7.56818 113.027 7.68466 112.607 7.91762C112.192 8.14489 111.862 8.46307 111.618 8.87216C111.379 9.28125 111.26 9.75284 111.26 10.2869V17.6932H107.629ZM122.755 17.9489C121.431 17.9489 120.286 17.6676 119.32 17.1051C118.36 16.5369 117.619 15.7472 117.096 14.7358C116.573 13.7188 116.312 12.5398 116.312 11.1989C116.312 9.84659 116.573 8.66477 117.096 7.65341C117.619 6.63637 118.36 5.84659 119.32 5.28409C120.286 4.71591 121.431 4.43182 122.755 4.43182C124.079 4.43182 125.221 4.71591 126.181 5.28409C127.147 5.84659 127.891 6.63637 128.414 7.65341C128.937 8.66477 129.198 9.84659 129.198 11.1989C129.198 12.5398 128.937 13.7188 128.414 14.7358C127.891 15.7472 127.147 16.5369 126.181 17.1051C125.221 17.6676 124.079 17.9489 122.755 17.9489ZM122.772 15.1364C123.374 15.1364 123.877 14.9659 124.281 14.625C124.684 14.2784 124.988 13.8068 125.192 13.2102C125.403 12.6136 125.508 11.9347 125.508 11.1733C125.508 10.4119 125.403 9.73296 125.192 9.13637C124.988 8.53977 124.684 8.06818 124.281 7.72159C123.877 7.375 123.374 7.20171 122.772 7.20171C122.164 7.20171 121.653 7.375 121.238 7.72159C120.829 8.06818 120.519 8.53977 120.309 9.13637C120.104 9.73296 120.002 10.4119 120.002 11.1733C120.002 11.9347 120.104 12.6136 120.309 13.2102C120.519 13.8068 120.829 14.2784 121.238 14.625C121.653 14.9659 122.164 15.1364 122.772 15.1364Z" fill="#D60000"/>
</svg>
